<!-- icon666.com - MILLIONS OF FREE VECTOR ICONS --><svg id="Layer_2" viewBox="0 0 50 50" xmlns="http://www.w3.org/2000/svg" data-name="Layer 2"><path d="m21 16h-5v17.09a4.916 4.916 0 0 0 4.91 4.91h8.18a4.916 4.916 0 0 0 4.91-4.91v-17.09zm2 16a1 1 0 0 1 -2 0v-10a1 1 0 0 1 2 0zm6 0a1 1 0 0 1 -2 0v-10a1 1 0 0 1 2 0z" fill="#000000" style="fill: rgb(209, 0, 0);"></path><path d="m25 12a3.006 3.006 0 0 0 -2.829 2h5.658a3.006 3.006 0 0 0 -2.829-2z" fill="#000000" style="fill: rgb(209, 0, 0);"></path><path d="m25 1a24 24 0 1 0 24 24 24.028 24.028 0 0 0 -24-24zm12 15h-1v17.09a6.918 6.918 0 0 1 -6.91 6.91h-8.18a6.918 6.918 0 0 1 -6.91-6.91v-17.09h-1a1 1 0 0 1 0-2h7.1a5 5 0 0 1 9.8 0h7.1a1 1 0 0 1 0 2z" fill="#000000" style="fill: rgb(209, 0, 0);"></path></svg>